Coordinates
version=1
nRows=21
nColumns=22
inDegrees=yes

Units are S.I. units (second, meters, Newtons, ...)
If the header above contains a line with 'inDegrees', this indicates whether rotational values are in degrees (yes) or radians (no).

endheader
time	pelvis_tilt	pelvis_list	pelvis_rotation	pelvis_tx	pelvis_ty	pelvis_tz	hip_flexion_r	hip_adduction_r	hip_rotation_r	knee_angle_r	ankle_angle_r	subtalar_angle_r	hip_flexion_l	hip_adduction_l	hip_rotation_l	knee_angle_l	ankle_angle_l	subtalar_angle_l	lumbar_extension	lumbar_bending	lumbar_rotation
      1.15000000	     -0.84830896	     -3.78632130	     -5.25034690	      0.95262513	      0.94244884	     -0.25568771	     11.75010973	      3.79945262	      0.21086852	    -25.11924263	     12.08017127	     -2.42761826	      9.29804788	     -8.14100103	     -8.97893676	    -26.17126582	     13.46890045	     -2.85961087	     -3.36169419	      3.61513363	     -8.68020863
      1.16000000	     -0.81039512	     -3.75407910	     -5.33514439	      0.95152111	      0.94242214	     -0.25480674	     11.90999515	      3.84809052	      0.30604009	    -25.33488489	     12.04196972	     -2.51991581	      9.38045086	     -8.17341398	     -8.98973947	    -26.29158929	     13.41477398	     -2.76897375	     -3.53313377	      3.59875070	     -8.58130929
      1.17000000	     -0.75069621	     -3.72597803	     -5.40765268	      0.95033584	      0.94243114	     -0.25388622	     12.03938787	      3.89857229	      0.37329430	    -25.52916268	     12.00001872	     -2.57506801	      9.45129446	     -8.20877730	     -8.97860277	    -26.41924295	     13.34334065	     -2.70976746	     -3.74387429	      3.58591993	     -8.46289343
      1.18000000	     -0.71008928	     -3.68845485	     -5.50977292	      0.94905231	      0.94240251	     -0.25283718	     12.20309237	      3.96404392	      0.51409228	    -25.73869498	     11.95285473	     -2.72298167	      9.53821927	     -8.24837787	     -9.00515341	    -26.53923949	     13.29558339	     -2.59173095	     -3.94353063	      3.56247827	     -8.33032437
      1.19000000	     -0.64961946	     -3.66730376	     -5.57415005	      0.94772643	      0.94241880	     -0.25180995	     12.32738989	      4.02772715	      0.55570818	    -25.91106058	     11.89864761	     -2.77824477	      9.61765923	     -8.29488846	     -8.96770629	    -26.66476980	     13.20035458	     -2.53321618	     -4.17648777	      3.56410196	     -8.19799746
      1.20000000	     -0.60245357	     -3.64232488	     -5.63579918	      0.94633797	      0.94241501	     -0.25070137	     12.46195478	      4.09969410	      0.61930852	    -26.07210020	     11.84006559	     -2.85943706	      9.71886845	     -8.34669226	     -8.93418709	    -26.79435698	     13.10591652	     -2.45765872	     -4.40133514	      3.56100261	     -8.06030492
      1.21000000	     -0.59699906	     -3.61603592	     -5.69650877	      0.94488476	      0.94235361	     -0.24951047	     12.63934340	      4.18556777	      0.69784533	    -26.22386954	     11.75746184	     -3.06543484	      9.87499489	     -8.41021024	     -8.90313948	    -26.93309304	     13.02588184	     -2.31388424	     -4.58483398	      3.56330408	     -7.95197861
      1.22000000	     -0.58424014	     -3.59167752	     -5.69415818	      0.94339037	      0.94231442	     -0.24836949	     12.78510143	      4.25402718	      0.68146421	    -26.32948982	     11.68341547	     -3.23672845	     10.05239622	     -8.46505274	     -8.79299713	    -27.09015412	     12.91763915	     -2.20393153	     -4.78405815	      3.57236146	     -7.86771009
      1.23000000	     -0.56002845	     -3.56580662	     -5.68356936	      0.94187117	      0.94231793	     -0.24718432	     12.90791515	      4.31860446	      0.64334012	    -26.41509168	     11.63614342	     -3.30407003	     10.20551175	     -8.51669421	     -8.67910117	    -27.21573585	     12.77854858	     -2.13831804	     -5.00388296	      3.58093292	     -7.74779325
      1.24000000	     -0.62658708	     -3.53597492	     -5.62121635	      0.94021315	      0.94217699	     -0.24600778	     13.13237581	      4.38450529	      0.56817892	    -26.49296223	     11.53831545	     -3.53658785	     10.51836612	     -8.57565206	     -8.50333564	    -27.40761023	     12.65320689	     -1.99902632	     -5.13268387	      3.60256011	     -7.72718971
      1.25000000	     -0.66408148	     -3.49181197	     -5.53963702	      0.93852759	      0.94213620	     -0.24479646	     13.29621262	      4.42754464	      0.46622684	    -26.51130739	     11.44193675	     -3.67054343	     10.79374062	     -8.62008950	     -8.34105839	    -27.56840860	     12.44380393	     -1.88851964	     -5.30157170	      3.60177658	     -7.67058267
      1.26000000	     -0.75594685	     -3.44808391	     -5.41932144	      0.93669534	      0.94200768	     -0.24359891	     13.53871385	      4.46939792	      0.31657531	    -26.55250448	     11.35588607	     -3.86939526	     11.15947680	     -8.66485032	     -8.11755677	    -27.74528600	     12.26274433	     -1.75997132	     -5.42869498	      3.61544781	     -7.64795607
      1.27000000	     -0.83671420	     -3.38226471	     -5.27248696	      0.93481561	      0.94197330	     -0.24238469	     13.73091663	      4.48074567	      0.14754073	    -26.51387054	     11.23830237	     -3.99553508	     11.51661129	     -8.69032465	     -7.91551543	    -27.89606892	     11.97854620	     -1.63052693	     -5.57442868	      3.60140594	     -7.61763771
      1.28000000	     -0.97828109	     -3.31619129	     -5.07960974	      0.93274106	      0.94182566	     -0.24118989	     14.02033283	      4.48895893	     -0.07486474	    -26.51399173	     11.13868190	     -4.19714200	     11.98479979	     -8.71350112	     -7.63532137	    -28.07945353	     11.74390337	     -1.48260349	     -5.67580494	      3.59595061	     -7.62140506
      1.29000000	     -1.12067343	     -3.23213208	     -4.85835915	      0.93059068	      0.94174048	     -0.23998660	     14.28384035	      4.47114218	     -0.32090954	    -26.45397424	     11.01640120	     -4.37466772	     12.45874938	     -8.71830039	     -7.35832561	    -28.23738548	     11.44503311	     -1.32127717	     -5.78318374	      3.56684831	     -7.62206318
      1.30000000	     -1.28463132	     -3.14092044	     -4.60291941	      0.92833243	      0.94165678	     -0.23879155	     14.56142348	      4.43875594	     -0.60240174	    -26.36639696	     10.88965515	     -4.55775285	     12.97248917	     -8.71263975	     -7.05337480	    -28.38934667	     11.13590159	     -1.14237685	     -5.87561429	      3.52957548	     -7.63089839
      1.31000000	     -1.45853014	     -3.04180036	     -4.31397697	      0.92597764	      0.94158718	     -0.23761288	     14.83882061	      4.38939039	     -0.91396773	    -26.24957799	     10.75485030	     -4.73818929	     13.51084873	     -8.69167795	     -6.71647958	    -28.53841244	     10.82635547	     -0.94300441	     -5.96363296	      3.48138222	     -7.65611764
      1.32000000	     -1.61251917	     -2.92785155	     -3.99722197	      0.92357885	      0.94160135	     -0.23646567	     15.07108799	      4.31367989	     -1.23966947	    -26.08503627	     10.59375735	     -4.87052152	     14.02253284	     -8.64383369	     -6.36824063	    -28.66450853	     10.49077971	     -0.73342278	     -6.07169512	      3.41568525	     -7.71821873
      1.33000000	     -1.81718126	     -2.84276461	     -3.64984240	      0.92105412	      0.94148886	     -0.23532096	     15.37421064	      4.26232250	     -1.61564712	    -25.94443561	     10.47277032	     -5.08662459	     14.63211570	     -8.61728834	     -5.93140459	    -28.86442246	     10.29781624	     -0.46204130	     -6.12564376	      3.37274867	     -7.75733541
      1.34000000	     -1.97826784	     -2.75127994	     -3.28700617	      0.91853935	      0.94147687	     -0.23422108	     15.60670118	      4.19303018	     -1.99429239	    -25.76324790	     10.32863295	     -5.26046790	     15.18070299	     -8.56648612	     -5.48392902	    -29.06542502	     10.11735638	     -0.17105530	     -6.21556918	      3.32060023	     -7.82960775
      1.35000000	     -2.12970929	     -2.67748887	     -2.91903885	      0.91601691	      0.94146217	     -0.23313350	     15.82293500	      4.13745172	     -2.37605934	    -25.57435147	     10.18616040	     -5.43715164	     15.72411198	     -8.52292386	     -5.00620850	    -29.32710181	     10.03695886	      0.16993189	     -6.29931399	      3.27991544	     -7.90810283
